<svg version="1.1" id="Layer_1" xmlns="http://www.w3.org/2000/svg" xmlns:xlink="http://www.w3.org/1999/xlink" x="0px" y="0px"
	 width="100%" viewBox="0 0 225 225" enable-background="new 0 0 225 225" xml:space="preserve">
<path fill="#FFFFFF" opacity="1.000000" stroke="none" 
	d="
M116.000000,1.000000 
	C152.626724,1.000000 189.253448,1.000000 225.940094,1.000000 
	C225.940094,75.878319 225.940094,150.756699 225.940094,226.000000 
	C203.980453,226.000000 181.958878,226.000000 159.470001,225.531815 
	C159.002670,219.471344 159.002670,213.879074 159.002670,208.024963 
	C155.791794,208.024963 153.305176,208.024963 150.777100,207.556885 
	C150.606171,197.778763 150.476685,188.468750 150.456039,178.694351 
	C150.494095,175.098419 150.423309,171.966843 150.496124,168.570221 
	C150.647522,167.902710 150.655304,167.500259 151.124725,167.018204 
	C154.655151,166.597504 157.723969,166.256424 160.880859,165.459778 
	C160.939606,154.032837 160.910248,143.061478 160.973022,131.916931 
	C161.065140,131.743759 161.179611,131.368530 161.512421,131.560913 
	C164.237244,131.863708 166.629227,131.974121 169.259079,132.250092 
	C169.702972,132.955460 169.909012,133.495270 170.055878,134.498230 
	C169.996689,150.264847 169.996689,165.568329 169.996689,180.903900 
	C174.738037,180.903900 178.850296,180.903900 183.368134,180.750793 
	C183.830856,160.114014 183.979965,139.629929 183.888290,119.146912 
	C183.861298,113.121231 179.611420,107.844604 174.474564,106.285217 
	C171.547470,105.396652 169.965942,106.181038 169.966812,109.421692 
	C169.967499,111.919212 169.907333,114.416748 169.442474,116.949051 
	C166.409409,116.989555 163.808075,116.995293 161.139297,116.954597 
	C161.071854,116.908173 160.909760,116.884903 160.964569,116.434418 
	C161.019363,112.610672 161.019363,109.237411 161.019363,105.867226 
	C154.184875,105.867226 148.110947,105.867226 142.149490,105.832306 
	C142.261963,105.797394 142.227112,105.564453 142.140167,105.352676 
	C142.053238,105.140907 141.746460,104.799370 141.763519,104.366844 
	C141.791489,101.609344 141.802399,99.284363 142.287262,96.876106 
	C148.765045,96.501808 154.768860,96.210793 160.872635,95.466072 
	C160.935318,75.358856 160.898041,55.705330 160.919922,35.678108 
	C159.739456,29.187286 156.443100,25.107643 149.731674,24.113155 
	C149.501480,24.043251 149.028702,24.132656 148.564941,24.047915 
	C137.791458,23.896622 127.481728,23.830070 117.149323,23.324306 
	C117.076225,19.904638 117.025803,16.924179 117.096725,13.609628 
	C121.255913,7.683675 121.061630,5.725724 116.000000,1.000000 
z"/>
<path fill="#FFFFFF" opacity="1.000000" stroke="none" 
	d="
M68.000000,226.000000 
	C45.690987,226.000000 23.381977,226.000000 1.036483,226.000000 
	C1.036483,151.106018 1.036483,76.212006 1.036483,1.000000 
	C37.353611,1.000000 73.708145,1.000000 110.396561,1.323592 
	C105.882530,5.674340 105.790367,7.280254 109.968071,14.392679 
	C109.883659,17.815620 109.855873,20.789591 109.374962,23.831768 
	C101.271912,23.970655 93.621986,24.041332 85.608437,24.047075 
	C84.511490,24.035954 83.778160,24.089766 82.744095,24.124641 
	C81.956741,24.450592 81.470116,24.795477 80.602119,25.060669 
	C73.048027,23.173656 68.204140,26.647921 66.096085,35.516716 
	C66.088242,55.969181 66.156509,75.962196 66.217682,96.191025 
	C66.210587,96.426842 66.557816,96.745720 66.557816,96.745720 
	C66.557816,96.745720 67.012604,96.621483 67.444061,96.704529 
	C69.918694,96.705299 71.961884,96.623024 74.458725,96.625870 
	C78.337273,96.793884 81.762161,96.876762 85.195511,97.396896 
	C85.220505,100.156059 85.237045,102.477959 85.092438,104.977264 
	C84.931305,105.154671 84.735703,105.592278 84.430420,105.609161 
	C83.717567,105.618736 83.310013,105.611427 82.761673,105.449265 
	C82.315697,105.182915 82.056122,105.249718 81.391251,105.451576 
	C76.276939,105.552246 71.613548,105.696182 66.580460,106.068375 
	C66.085052,109.867424 65.959358,113.438232 65.397614,117.009796 
	C62.349594,116.978432 59.737614,116.946297 57.085575,116.466698 
	C57.045513,112.887199 57.045513,109.755157 57.045513,105.194817 
	C53.098656,107.016197 49.215736,107.701935 47.229725,110.015808 
	C44.952728,112.668678 43.280437,116.744797 43.212242,120.239044 
	C42.836651,139.484177 43.017071,158.740494 43.073502,177.992767 
	C43.076351,178.963913 43.698902,179.933258 44.491066,180.982635 
	C48.861919,181.061813 52.774620,181.061813 56.933514,181.061813 
	C56.933514,164.701859 56.933514,148.860718 57.050961,132.878952 
	C57.168407,132.738327 57.220375,132.375595 57.631344,132.353653 
	C60.638924,132.001144 63.235535,131.670578 65.883560,131.777222 
	C66.009727,143.455002 66.084480,154.695572 66.298759,166.340820 
	C69.760689,166.878220 73.083084,167.010910 76.366287,167.436142 
	C76.433975,168.095459 76.540863,168.462250 76.543045,169.284363 
	C76.509926,172.880844 76.581512,176.021988 76.511620,179.597504 
	C76.307159,189.362961 76.244186,198.694046 75.721436,208.068039 
	C72.986916,208.110931 70.712173,208.110931 68.000000,208.110931 
	C68.000000,214.420914 68.000000,220.210449 68.000000,226.000000 
z"/>
<path fill="#FFFDFD" opacity="1.000000" stroke="none" 
	d="
M128.000000,226.000000 
	C118.645775,226.000000 109.291542,226.000000 99.661369,225.564804 
	C99.385422,219.616989 99.385422,214.104370 99.385422,208.358337 
	C96.240891,208.202835 93.653374,208.074875 91.040176,207.695084 
	C90.966606,207.281418 90.918716,207.119583 90.917122,206.728607 
	C90.963409,206.499466 90.893150,206.037231 90.969864,205.571655 
	C90.995636,197.059158 90.944687,189.012207 90.930649,180.719727 
	C90.967567,180.474167 90.884399,179.984589 90.962624,179.528656 
	C91.048203,175.072205 91.055557,171.071686 91.523239,167.001938 
	C106.634743,166.978867 121.285927,167.025009 135.932190,167.528931 
	C135.990051,171.986038 136.052841,175.985321 136.074036,180.228943 
	C136.032440,180.473267 136.106277,180.963409 136.029663,181.428955 
	C136.004318,189.941467 136.055588,197.988449 136.071716,206.266418 
	C136.036560,206.497421 136.129044,206.955505 136.057251,207.198837 
	C135.968369,207.610428 135.951263,207.778702 135.489227,208.023987 
	C132.651154,208.101013 130.257965,208.101013 127.513924,208.101013 
	C127.513924,213.463181 127.482849,218.049210 127.536110,222.634262 
	C127.549164,223.757828 127.837975,224.878174 128.000000,226.000000 
z"/>
<path fill="#F95529" opacity="1.000000" stroke="none" 
	d="
M91.065857,207.946930 
	C93.653374,208.074875 96.240891,208.202835 99.385422,208.358337 
	C99.385422,214.104370 99.385422,219.616989 99.192711,225.564804 
	C88.979103,226.000000 78.958214,226.000000 68.468658,226.000000 
	C68.000000,220.210449 68.000000,214.420914 68.000000,208.110931 
	C70.712173,208.110931 72.986916,208.110931 76.171402,208.086761 
	C81.742714,208.024033 86.404282,207.985489 91.065857,207.946930 
z"/>
<path fill="#F95529" opacity="1.000000" stroke="none" 
	d="
M128.468658,226.000000 
	C127.837975,224.878174 127.549164,223.757828 127.536110,222.634262 
	C127.482849,218.049210 127.513924,213.463181 127.513924,208.101013 
	C130.257965,208.101013 132.651154,208.101013 135.958557,208.049988 
	C141.521378,208.007629 146.169968,208.016296 150.818542,208.024963 
	C153.305176,208.024963 155.791794,208.024963 159.002670,208.024963 
	C159.002670,213.879074 159.002670,219.471344 159.001343,225.531815 
	C148.979111,226.000000 138.958206,226.000000 128.468658,226.000000 
z"/>
<path fill="#F6B440" opacity="1.000000" stroke="none" 
	d="
M110.024696,13.943707 
	C105.790367,7.280254 105.882530,5.674340 110.865219,1.323592 
	C112.388893,1.000000 113.777779,1.000000 115.583336,1.000000 
	C121.061630,5.725724 121.255913,7.683675 116.661591,13.604385 
	C114.078308,13.936726 112.051498,13.940216 110.024696,13.943707 
z"/>
<path fill="#F85529" opacity="1.000000" stroke="none" 
	d="
M85.187050,96.959641 
	C81.762161,96.876762 78.337273,96.793884 74.534767,96.244598 
	C74.436066,93.846107 74.898926,91.919853 74.960419,89.980865 
	C75.169365,83.392990 75.236549,76.800613 75.580544,70.498291 
	C76.670540,71.796112 77.471428,72.872986 78.415871,73.804260 
	C85.040787,80.336777 95.947174,80.337318 102.240250,73.837273 
	C108.761909,67.101128 108.820259,56.545723 102.288322,49.969028 
	C95.842636,43.479172 83.409988,41.810291 75.193741,53.129814 
	C75.077507,50.493633 74.987503,48.360538 75.002571,46.228184 
	C75.056114,38.653221 73.387711,30.579252 80.983490,25.140362 
	C81.470116,24.795477 81.956741,24.450592 82.931854,24.351048 
	C84.270920,24.434931 85.121483,24.273472 85.972054,24.112011 
	C93.621986,24.041332 101.271912,23.970655 109.670883,23.920338 
	C110.615425,24.005100 110.810921,24.069504 111.250702,24.376575 
	C112.994499,24.457466 114.494011,24.295687 116.286888,24.037300 
	C116.777489,23.881634 116.974739,23.822575 117.171989,23.763517 
	C127.481728,23.830070 137.791458,23.896622 148.644592,24.196930 
	C149.445938,24.348145 149.703903,24.265600 149.961868,24.183056 
	C156.443100,25.107643 159.739456,29.187286 160.644989,35.983940 
	C160.215027,55.824074 160.112381,74.984650 160.055130,94.145355 
	C160.053375,94.736115 160.522888,95.328270 160.772690,95.919769 
	C154.768860,96.210793 148.765045,96.501808 141.832977,96.866272 
	C122.332169,96.946358 103.759605,96.952995 85.187050,96.959641 
M128.084229,47.354736 
	C120.530823,52.627369 117.848587,60.552902 121.042542,68.161621 
	C124.170380,75.612816 132.131561,80.087364 139.569168,78.486908 
	C146.527771,76.989532 151.234894,72.902451 152.993896,65.929337 
	C154.699646,59.167435 152.653290,53.355923 147.380203,48.933140 
	C141.716232,44.182472 135.385437,43.659092 128.084229,47.354736 
z"/>
<path fill="#2CA5F6" opacity="1.000000" stroke="none" 
	d="
M135.937103,167.071136 
	C121.285927,167.025009 106.634743,166.978867 91.070496,166.918076 
	C87.101357,166.848068 84.045288,166.792709 81.271576,166.481277 
	C82.033600,164.590134 82.909325,162.960144 82.930359,161.319199 
	C83.100372,148.054092 83.109802,134.786911 83.437675,121.774460 
	C85.464783,124.162697 87.690079,124.937309 89.530762,122.634750 
	C90.363083,121.593559 90.518250,118.988853 89.781036,117.923920 
	C88.151817,115.570450 85.819763,116.106873 83.572266,117.664406 
	C83.168800,113.871094 83.028328,110.387901 82.919739,106.579880 
	C82.935226,106.038071 82.918839,105.821091 82.902451,105.604118 
	C83.310013,105.611427 83.717567,105.618736 84.903015,105.745956 
	C92.961258,105.906296 100.242119,106.019676 107.521873,105.970428 
	C119.090675,105.892159 130.658737,105.705345 142.227112,105.564453 
	C142.227112,105.564453 142.261963,105.797394 142.405457,106.168640 
	C148.231018,106.813728 153.913055,107.087578 159.366394,107.350403 
	C159.936188,110.870461 160.422974,113.877686 160.909760,116.884903 
	C160.909760,116.884903 161.071854,116.908173 161.063263,117.413757 
	C161.096329,122.402412 161.137970,126.885468 161.179611,131.368530 
	C161.179611,131.368530 161.065140,131.743759 160.689697,132.210297 
	C160.209106,139.395676 159.984100,146.115555 160.041595,152.833023 
	C160.078918,157.195633 160.528122,161.554688 160.792786,165.915344 
	C157.723969,166.256424 154.655151,166.597504 150.932617,166.986755 
	C150.278870,167.034943 149.899719,167.131775 149.452530,167.022018 
	C144.649261,166.965225 140.293182,167.018173 135.937103,167.071136 
M93.525208,146.661667 
	C106.700417,146.802780 119.875633,146.943893 133.147049,147.338348 
	C133.233841,147.306351 133.320633,147.274353 133.407425,147.242355 
	C133.307922,147.186371 133.208420,147.130386 133.195160,146.613205 
	C133.195160,146.613205 133.129929,146.148590 133.442947,145.434891 
	C133.481644,143.856949 133.898666,142.175827 133.500748,140.716980 
	C129.351273,125.504593 110.916634,121.280838 99.245941,131.246841 
	C97.236870,134.844559 95.227798,138.442276 93.064857,142.497925 
	C93.064857,142.497925 93.132675,142.976227 92.908394,143.630005 
	C92.931419,144.085541 92.954445,144.541077 92.813904,145.507767 
	C92.868416,145.678177 92.922920,145.848587 93.525208,146.661667 
M138.227066,123.404694 
	C139.988495,122.746040 141.951141,122.350418 143.380234,121.257278 
	C143.773392,120.956543 142.975723,117.958496 141.992493,117.312805 
	C140.965607,116.638451 137.912308,116.937149 137.743149,117.458649 
	C137.197998,119.139313 137.573395,121.118584 138.227066,123.404694 
z"/>
<path fill="#F95529" opacity="1.000000" stroke="none" 
	d="
M170.115051,134.035080 
	C169.909012,133.495270 169.702972,132.955460 169.399353,131.851746 
	C169.492599,126.496643 169.683411,121.705460 169.874222,116.914276 
	C169.907333,114.416748 169.967499,111.919212 169.966812,109.421692 
	C169.965942,106.181038 171.547470,105.396652 174.474564,106.285217 
	C179.611420,107.844604 183.861298,113.121231 183.888290,119.146912 
	C183.979965,139.629929 183.830856,160.114014 183.071899,180.466766 
	C180.397980,180.220963 178.387924,179.807144 176.461395,180.051590 
	C172.062088,180.609787 170.777649,178.968491 170.894119,174.547424 
	C171.203934,162.787048 171.035477,151.012894 170.959976,139.244843 
	C170.948837,137.506516 170.409836,135.771576 170.115051,134.035080 
z"/>
<path fill="#E09C30" opacity="1.000000" stroke="none" 
	d="
M85.195511,97.396896 
	C103.759605,96.952995 122.332169,96.946358 141.359009,96.949554 
	C141.802399,99.284363 141.791489,101.609344 141.560165,104.380692 
	C141.339752,104.827065 140.932053,104.800400 140.830276,104.664062 
	C140.487854,104.670456 140.247208,104.813187 139.540863,105.017746 
	C121.714584,105.038345 104.354012,104.997131 86.923050,104.799057 
	C86.591080,104.694916 86.329506,104.747643 85.864334,104.813850 
	C85.660736,104.827332 85.253578,104.799858 85.253578,104.799858 
	C85.237045,102.477959 85.220505,100.156059 85.195511,97.396896 
z"/>
<path fill="#F7B542" opacity="1.000000" stroke="none" 
	d="
M150.777100,207.556870 
	C146.169968,208.016296 141.521378,208.007629 136.403473,207.972961 
	C135.951263,207.778702 135.968369,207.610428 136.210754,207.116364 
	C136.326309,206.538834 136.216583,206.287125 136.106857,206.035416 
	C136.055588,197.988449 136.004318,189.941467 136.237427,181.331436 
	C136.766785,180.569885 136.940186,180.321426 137.499023,180.017426 
	C142.086456,179.727463 146.216827,179.443085 150.347198,179.158722 
	C150.476685,188.468750 150.606171,197.778763 150.777100,207.556870 
z"/>
<path fill="#E19B29" opacity="1.000000" stroke="none" 
	d="
M150.456039,178.694351 
	C146.216827,179.443085 142.086456,179.727463 137.267334,180.004852 
	C136.578598,179.997864 136.115616,179.984619 136.115616,179.984619 
	C136.052841,175.985321 135.990051,171.986038 135.932190,167.528931 
	C140.293182,167.018173 144.649261,166.965225 149.472580,167.248016 
	C150.077377,168.000961 150.214935,168.418121 150.352509,168.835281 
	C150.423309,171.966843 150.494095,175.098419 150.456039,178.694351 
z"/>
<path fill="#F7B239" opacity="1.000000" stroke="none" 
	d="
M169.442474,116.949051 
	C169.683411,121.705460 169.492599,126.496643 169.161499,131.686188 
	C166.629227,131.974121 164.237244,131.863708 161.512421,131.560913 
	C161.137970,126.885468 161.096329,122.402412 161.130707,117.460190 
	C163.808075,116.995293 166.409409,116.989555 169.442474,116.949051 
z"/>
<path fill="#29A4F5" opacity="1.000000" stroke="none" 
	d="
M111.006424,24.133905 
	C110.810921,24.069504 110.615425,24.005100 110.124001,23.852131 
	C109.855873,20.789591 109.883659,17.815620 109.968071,14.392679 
	C112.051498,13.940216 114.078308,13.936726 116.540253,13.938477 
	C117.025803,16.924179 117.076225,19.904638 117.149323,23.324306 
	C116.974739,23.822575 116.777489,23.881634 115.874565,23.969902 
	C113.781395,24.044044 112.393913,24.088976 111.006424,24.133905 
z"/>
<path fill="#F94300" opacity="1.000000" stroke="none" 
	d="
M160.872635,95.466072 
	C160.522888,95.328270 160.053375,94.736115 160.055130,94.145355 
	C160.112381,74.984650 160.215027,55.824074 160.585846,36.357643 
	C160.898041,55.705330 160.935318,75.358856 160.872635,95.466072 
z"/>
<path fill="#F94608" opacity="1.000000" stroke="none" 
	d="
M170.055878,134.498230 
	C170.409836,135.771576 170.948837,137.506516 170.959976,139.244843 
	C171.035477,151.012894 171.203934,162.787048 170.894119,174.547424 
	C170.777649,178.968491 172.062088,180.609787 176.461395,180.051590 
	C178.387924,179.807144 180.397980,180.220963 182.666336,180.619873 
	C178.850296,180.903900 174.738037,180.903900 169.996689,180.903900 
	C169.996689,165.568329 169.996689,150.264847 170.055878,134.498230 
z"/>
<path fill="#92B2C4" opacity="1.000000" stroke="none" 
	d="
M85.092438,104.977264 
	C85.253578,104.799858 85.660736,104.827332 86.085075,104.915695 
	C86.509415,105.004066 86.993431,104.955917 86.993431,104.955917 
	C104.354012,104.997131 121.714584,105.038345 139.782806,105.041641 
	C140.490463,105.003723 140.932053,104.800400 140.932053,104.800400 
	C140.932053,104.800400 141.339752,104.827065 141.543106,104.813217 
	C141.746460,104.799370 142.053238,105.140907 142.140167,105.352676 
	C130.658737,105.705345 119.090675,105.892159 107.521873,105.970428 
	C100.242119,106.019676 92.961258,105.906296 85.208298,105.729080 
	C84.735703,105.592278 84.931305,105.154671 85.092438,104.977264 
z"/>
<path fill="#009FF6" opacity="1.000000" stroke="none" 
	d="
M160.880875,165.459778 
	C160.528122,161.554688 160.078918,157.195633 160.041595,152.833023 
	C159.984100,146.115555 160.209106,139.395676 160.597580,132.383453 
	C160.910248,143.061478 160.939606,154.032837 160.880875,165.459778 
z"/>
<path fill="#15A3FB" opacity="1.000000" stroke="none" 
	d="
M160.964569,116.434418 
	C160.422974,113.877686 159.936188,110.870461 159.366394,107.350403 
	C153.913055,107.087578 148.231018,106.813728 142.292999,106.203552 
	C148.110947,105.867226 154.184875,105.867226 161.019363,105.867226 
	C161.019363,109.237411 161.019363,112.610672 160.964569,116.434418 
z"/>
<path fill="#F7B542" opacity="1.000000" stroke="none" 
	d="
M150.496124,168.570221 
	C150.214935,168.418121 150.077377,168.000961 149.919769,167.357788 
	C149.899719,167.131775 150.278870,167.034943 150.470978,167.066376 
	C150.655304,167.500259 150.647522,167.902710 150.496124,168.570221 
z"/>
<path fill="#F94B13" opacity="1.000000" stroke="none" 
	d="
M149.731674,24.113153 
	C149.703903,24.265600 149.445938,24.348145 149.108337,24.281673 
	C149.028702,24.132656 149.501480,24.043251 149.731674,24.113153 
z"/>
<path fill="#2197D9" opacity="1.000000" stroke="none" 
	d="
M82.887856,106.904709 
	C83.028328,110.387901 83.168800,113.871094 83.503204,117.966583 
	C83.520836,119.559372 83.344536,120.539864 83.168236,121.520363 
	C83.109802,134.786911 83.100372,148.054092 82.930359,161.319199 
	C82.909325,162.960144 82.033600,164.590134 80.891907,166.567017 
	C79.197372,166.988693 78.164879,167.068542 76.950905,167.109436 
	C76.769432,167.070450 76.405487,167.143585 76.405487,167.143585 
	C73.083084,167.010910 69.760689,166.878220 66.567169,166.031616 
	C66.780754,145.491837 66.865456,125.665977 66.950165,105.840118 
	C71.613548,105.696182 76.276939,105.552246 81.428574,105.685677 
	C82.240501,106.276932 82.564178,106.590820 82.887856,106.904709 
z"/>
<path fill="#F95529" opacity="1.000000" stroke="none" 
	d="
M44.032913,180.903442 
	C43.698902,179.933258 43.076351,178.963913 43.073502,177.992767 
	C43.017071,158.740494 42.836651,139.484177 43.212242,120.239044 
	C43.280437,116.744797 44.952728,112.668678 47.229725,110.015808 
	C49.215736,107.701935 53.098656,107.016197 57.045513,105.194817 
	C57.045513,109.755157 57.045513,112.887199 57.041931,116.935867 
	C57.099026,122.693527 57.159702,127.534561 57.220375,132.375595 
	C57.220375,132.375595 57.168407,132.738327 56.764046,133.178955 
	C56.240040,135.260284 56.020683,136.900711 56.016689,138.541687 
	C55.987209,150.649796 55.820797,162.762115 56.097755,174.863953 
	C56.195290,179.125748 54.764053,180.403168 50.714317,180.076721 
	C48.523632,179.900131 46.262348,180.599335 44.032913,180.903442 
z"/>
<path fill="#E64828" opacity="1.000000" stroke="none" 
	d="
M75.357864,70.209961 
	C75.236549,76.800613 75.169365,83.392990 74.960419,89.980865 
	C74.898926,91.919853 74.436066,93.846107 74.081108,96.159470 
	C71.961884,96.623024 69.918694,96.705299 67.431061,96.507996 
	C66.986618,96.228432 66.923622,95.839569 66.951546,95.381783 
	C66.986618,76.545410 67.014023,58.166767 66.964882,39.788330 
	C66.960663,38.210617 66.448433,36.634258 66.172195,35.057270 
	C68.204140,26.647921 73.048027,23.173656 80.602119,25.060669 
	C73.387711,30.579252 75.056114,38.653221 75.002571,46.228184 
	C74.987503,48.360538 75.077507,50.493633 75.115646,53.462509 
	C72.435242,59.645039 73.200409,64.938255 75.357864,70.209961 
z"/>
<path fill="#F7B542" opacity="1.000000" stroke="none" 
	d="
M91.040176,207.695099 
	C86.404282,207.985489 81.742714,208.024033 76.631172,208.043854 
	C76.244186,198.694046 76.307159,189.362961 76.822197,179.789062 
	C81.502174,179.705154 85.730095,179.864059 90.061279,180.228363 
	C90.339897,180.703812 90.582962,180.880981 90.893730,180.965271 
	C90.944687,189.012207 90.995636,197.059158 90.813156,205.648300 
	C90.520485,206.289520 90.387848,206.441940 90.414452,206.478500 
	C90.543106,206.655334 90.714554,206.801041 90.870834,206.957764 
	C90.918716,207.119583 90.966606,207.281418 91.040176,207.695099 
z"/>
<path fill="#E19B29" opacity="1.000000" stroke="none" 
	d="
M89.958015,180.022949 
	C85.730095,179.864059 81.502174,179.705154 76.963676,179.354706 
	C76.581512,176.021988 76.509926,172.880844 76.663887,169.101456 
	C76.970413,168.024933 77.051399,167.586670 77.132378,167.148407 
	C78.164879,167.068542 79.197372,166.988693 80.609543,166.823105 
	C84.045288,166.792709 87.101357,166.848068 90.610168,166.987289 
	C91.055557,171.071686 91.048203,175.072205 90.730904,179.535492 
	C90.420959,179.998260 89.958015,180.022964 89.958015,180.022949 
z"/>
<path fill="#F7B239" opacity="1.000000" stroke="none" 
	d="
M57.631348,132.353653 
	C57.159702,127.534561 57.099026,122.693527 57.081993,117.383324 
	C59.737614,116.946297 62.349594,116.978432 65.466965,117.470566 
	C65.925621,122.400383 65.878883,126.870201 65.832146,131.339996 
	C63.235535,131.670578 60.638924,132.001144 57.631348,132.353653 
z"/>
<path fill="#E32F00" opacity="1.000000" stroke="none" 
	d="
M66.096085,35.516716 
	C66.448433,36.634258 66.960663,38.210617 66.964882,39.788330 
	C67.014023,58.166767 66.986618,76.545410 66.778030,95.417038 
	C66.576599,95.910088 66.224777,95.955215 66.224777,95.955215 
	C66.156509,75.962196 66.088242,55.969181 66.096085,35.516716 
z"/>
<path fill="#0090D9" opacity="1.000000" stroke="none" 
	d="
M65.883560,131.777222 
	C65.878883,126.870201 65.925621,122.400383 65.903008,117.469803 
	C65.959358,113.438232 66.085052,109.867424 66.580460,106.068375 
	C66.865456,125.665977 66.780754,145.491837 66.427643,165.626923 
	C66.084480,154.695572 66.009727,143.455002 65.883560,131.777222 
z"/>
<path fill="#F94608" opacity="1.000000" stroke="none" 
	d="
M44.491066,180.982635 
	C46.262348,180.599335 48.523632,179.900131 50.714317,180.076721 
	C54.764053,180.403168 56.195290,179.125748 56.097755,174.863953 
	C55.820797,162.762115 55.987209,150.649796 56.016689,138.541687 
	C56.020683,136.900711 56.240040,135.260284 56.646599,133.319580 
	C56.933514,148.860718 56.933514,164.701859 56.933514,181.061813 
	C52.774620,181.061813 48.861919,181.061813 44.491066,180.982635 
z"/>
<path fill="#F94B13" opacity="1.000000" stroke="none" 
	d="
M85.608437,24.047075 
	C85.121483,24.273472 84.270920,24.434931 83.232590,24.369984 
	C83.778160,24.089766 84.511490,24.035954 85.608437,24.047075 
z"/>
<path fill="#92B2C4" opacity="1.000000" stroke="none" 
	d="
M82.919739,106.579880 
	C82.564178,106.590820 82.240501,106.276932 81.879501,105.728943 
	C82.056122,105.249718 82.315697,105.182915 82.761673,105.449265 
	C82.918839,105.821091 82.935226,106.038071 82.919739,106.579880 
z"/>
<path fill="#F7B542" opacity="1.000000" stroke="none" 
	d="
M76.950905,167.109421 
	C77.051399,167.586670 76.970413,168.024933 76.768593,168.646118 
	C76.540863,168.462250 76.433975,168.095459 76.366287,167.436127 
	C76.405487,167.143585 76.769432,167.070450 76.950905,167.109421 
z"/>
<path fill="#F85529" opacity="1.000000" stroke="none" 
	d="
M66.217682,96.191025 
	C66.224777,95.955215 66.576599,95.910088 66.750107,95.874832 
	C66.923622,95.839569 66.986618,96.228432 66.999611,96.424957 
	C67.012604,96.621483 66.557816,96.745720 66.557816,96.745720 
	C66.557816,96.745720 66.210587,96.426842 66.217682,96.191025 
z"/>
<path fill="#F6AC1D" opacity="1.000000" stroke="none" 
	d="
M90.061279,180.228363 
	C89.958015,180.022964 90.420959,179.998260 90.652679,179.991425 
	C90.884399,179.984589 90.967567,180.474167 90.930649,180.719727 
	C90.582962,180.880981 90.339897,180.703812 90.061279,180.228363 
z"/>
<path fill="#F6AC1D" opacity="1.000000" stroke="none" 
	d="
M136.074036,180.228943 
	C136.115616,179.984619 136.578598,179.997864 136.810287,180.010437 
	C136.940186,180.321426 136.766785,180.569885 136.314026,180.865891 
	C136.106277,180.963409 136.032440,180.473267 136.074036,180.228943 
z"/>
<path fill="#F6AC1D" opacity="1.000000" stroke="none" 
	d="
M90.917114,206.728607 
	C90.714554,206.801041 90.543106,206.655334 90.414452,206.478500 
	C90.387848,206.441940 90.520485,206.289520 90.736435,206.113861 
	C90.893150,206.037231 90.963409,206.499466 90.917114,206.728607 
z"/>
<path fill="#F6AC1D" opacity="1.000000" stroke="none" 
	d="
M136.071716,206.266418 
	C136.216583,206.287125 136.326309,206.538834 136.282547,206.873016 
	C136.129044,206.955505 136.036560,206.497421 136.071716,206.266418 
z"/>
<path fill="#504E4C" opacity="1.000000" stroke="none" 
	d="
M75.580536,70.498291 
	C73.200409,64.938255 72.435242,59.645039 75.190071,53.965935 
	C83.409988,41.810291 95.842636,43.479172 102.288322,49.969028 
	C108.820259,56.545723 108.761909,67.101128 102.240250,73.837273 
	C95.947174,80.337318 85.040787,80.336777 78.415871,73.804260 
	C77.471428,72.872986 76.670540,71.796112 75.580536,70.498291 
M82.887726,67.461769 
	C86.292374,71.366028 90.456131,72.367363 94.954727,69.872322 
	C98.577133,67.863235 100.907684,64.252647 99.316589,60.296177 
	C98.164970,57.432533 95.415100,54.040882 92.714401,53.298431 
	C89.983940,52.547806 85.750648,53.943516 83.411255,55.886593 
	C80.091438,58.643990 80.123230,62.930908 82.887726,67.461769 
z"/>
<path fill="#504E4C" opacity="1.000000" stroke="none" 
	d="
M128.425064,47.176189 
	C135.385437,43.659092 141.716232,44.182472 147.380203,48.933140 
	C152.653290,53.355923 154.699646,59.167435 152.993896,65.929337 
	C151.234894,72.902451 146.527771,76.989532 139.569168,78.486908 
	C132.131561,80.087364 124.170380,75.612816 121.042542,68.161621 
	C117.848587,60.552902 120.530823,52.627369 128.425064,47.176189 
M127.285637,63.108398 
	C127.696609,64.186577 127.986366,65.331985 128.540390,66.330818 
	C130.510162,69.882088 133.587830,71.413177 137.619995,71.026131 
	C141.700546,70.634430 144.960175,68.313232 145.414993,64.558197 
	C145.784592,61.506664 144.890701,57.205090 142.843979,55.268410 
	C140.823135,53.356194 136.470612,52.747738 133.467957,53.310825 
	C129.176361,54.115623 127.379341,57.983700 127.285637,63.108398 
z"/>
<path fill="#F94B13" opacity="1.000000" stroke="none" 
	d="
M111.250702,24.376575 
	C112.393913,24.088976 113.781395,24.044044 115.581207,24.066509 
	C114.494011,24.295687 112.994499,24.457466 111.250702,24.376575 
z"/>
<path fill="#F6B239" opacity="1.000000" stroke="none" 
	d="
M92.977470,144.996613 
	C92.954445,144.541077 92.931419,144.085541 93.168045,143.224823 
	C93.657867,142.506409 93.588211,142.246521 93.218719,142.039993 
	C95.227798,138.442276 97.236870,134.844559 99.958374,131.083191 
	C102.726303,130.348358 104.757393,129.660049 106.841423,129.225769 
	C117.048958,127.098610 128.317230,134.811661 129.778900,145.094711 
	C129.317093,145.348923 129.137482,145.577026 128.570801,145.933121 
	C116.724854,145.957535 105.345970,145.916962 93.857254,145.675232 
	C93.540573,145.234634 93.283928,145.075470 92.977470,144.996613 
z"/>
<path fill="#DE9B2E" opacity="1.000000" stroke="none" 
	d="
M129.981110,145.005585 
	C128.317230,134.811661 117.048958,127.098610 106.841423,129.225769 
	C104.757393,129.660049 102.726303,130.348358 100.265831,130.952026 
	C110.916634,121.280838 129.351273,125.504593 133.500748,140.716980 
	C133.898666,142.175827 133.481644,143.856949 132.893875,145.737579 
	C131.558151,145.974396 130.771500,145.908508 129.987396,145.633331 
	C129.989944,145.424072 129.981110,145.005585 129.981110,145.005585 
z"/>
<path fill="#4B5359" opacity="1.000000" stroke="none" 
	d="
M137.910492,123.193710 
	C137.573395,121.118584 137.197998,119.139313 137.743149,117.458649 
	C137.912308,116.937149 140.965607,116.638451 141.992493,117.312805 
	C142.975723,117.958496 143.773392,120.956543 143.380234,121.257278 
	C141.951141,122.350418 139.988495,122.746040 137.910492,123.193710 
z"/>
<path fill="#4B5359" opacity="1.000000" stroke="none" 
	d="
M83.437675,121.774460 
	C83.344536,120.539864 83.520836,119.559372 83.766197,118.276703 
	C85.819763,116.106873 88.151817,115.570450 89.781036,117.923920 
	C90.518250,118.988853 90.363083,121.593559 89.530762,122.634750 
	C87.690079,124.937309 85.464783,124.162697 83.437675,121.774460 
z"/>
<path fill="#90A9BB" opacity="1.000000" stroke="none" 
	d="
M129.984848,145.842606 
	C130.771500,145.908508 131.558151,145.974396 132.737366,146.094437 
	C133.129929,146.148590 133.195160,146.613205 133.127899,146.802429 
	C133.060638,146.991653 133.050842,147.085007 133.050842,147.085007 
	C119.875633,146.943893 106.700417,146.802780 93.500900,146.319458 
	C93.640099,145.943634 93.803596,145.910004 93.967094,145.876389 
	C105.345970,145.916962 116.724854,145.957535 128.808594,145.966812 
	C129.513474,145.935516 129.984848,145.842606 129.984848,145.842606 
z"/>
<path fill="#FDB329" opacity="1.000000" stroke="none" 
	d="
M93.857254,145.675232 
	C93.803596,145.910004 93.640099,145.943634 93.227005,145.998108 
	C92.922920,145.848587 92.868416,145.678177 92.895691,145.252197 
	C93.283928,145.075470 93.540573,145.234634 93.857254,145.675232 
z"/>
<path fill="#1EA5FD" opacity="1.000000" stroke="none" 
	d="
M133.084778,147.033020 
	C133.208420,147.130386 133.307922,147.186371 133.407425,147.242355 
	C133.320633,147.274353 133.233841,147.306351 133.098938,147.211670 
	C133.050842,147.085007 133.060638,146.991653 133.084778,147.033020 
z"/>
<path fill="#FDB329" opacity="1.000000" stroke="none" 
	d="
M93.141792,142.268951 
	C93.588211,142.246521 93.657867,142.506409 93.280182,142.897934 
	C93.132675,142.976227 93.064857,142.497925 93.141792,142.268951 
z"/>
<path fill="#E59B1D" opacity="1.000000" stroke="none" 
	d="
M86.923050,104.799057 
	C86.993431,104.955917 86.509415,105.004066 86.288666,104.902222 
	C86.329506,104.747643 86.591080,104.694916 86.923050,104.799057 
z"/>
<path fill="#E59B1D" opacity="1.000000" stroke="none" 
	d="
M140.830276,104.664062 
	C140.932053,104.800400 140.490463,105.003723 140.248505,104.979820 
	C140.247208,104.813187 140.487854,104.670456 140.830276,104.664062 
z"/>
<path fill="#F4B039" opacity="1.000000" stroke="none" 
	d="
M82.645576,67.152161 
	C80.123230,62.930908 80.091438,58.643990 83.411255,55.886593 
	C85.750648,53.943516 89.983940,52.547806 92.714401,53.298431 
	C95.415100,54.040882 98.164970,57.432533 99.316589,60.296177 
	C100.907684,64.252647 98.577133,67.863235 94.954727,69.872322 
	C90.456131,72.367363 86.292374,71.366028 82.645576,67.152161 
z"/>
<path fill="#F4B039" opacity="1.000000" stroke="none" 
	d="
M127.241371,62.726650 
	C127.379341,57.983700 129.176361,54.115623 133.467957,53.310825 
	C136.470612,52.747738 140.823135,53.356194 142.843979,55.268410 
	C144.890701,57.205090 145.784592,61.506664 145.414993,64.558197 
	C144.960175,68.313232 141.700546,70.634430 137.619995,71.026131 
	C133.587830,71.413177 130.510162,69.882088 128.540390,66.330818 
	C127.986366,65.331985 127.696609,64.186577 127.241371,62.726650 
z"/>
<path fill="#FDB329" opacity="1.000000" stroke="none" 
	d="
M129.987396,145.633331 
	C129.984848,145.842606 129.513474,145.935516 129.275665,145.901825 
	C129.137482,145.577026 129.317093,145.348923 129.778900,145.094711 
	C129.981110,145.005585 129.989944,145.424072 129.987396,145.633331 
z"/>
</svg>